<svg version="1" xmlns="http://www.w3.org/2000/svg" width="512" height="512" viewBox="0 0 384.000000 384.000000"><path d="M152 40.2c-12.9 3.8-31.4 11.9-41.1 18C93.7 69 76.3 85.1 65.8 99.6c-21.8 30.5-32 66.1-29.6 102.9 2.6 38.4 17.4 71.2 44.3 98.1 12.1 12.1 19.1 17.8 30.5 24.5 11.4 6.8 29.3 14.9 33 14.9.9 0 2 .4 2.5.8 1.2 1 10.1 3.1 26.5 6.1 6.4 1.1 33.7.6 42.5-.8 7.1-1.2 13.7-2.6 18.5-4 1.9-.5 4.6-1.3 6-1.6 4.4-1.2 9.3-3.2 20.5-8.6 15.2-7.3 28.8-17.1 42-30.4 30-29.9 45.6-67.7 45.6-110.1 0-39.1-12.1-71.9-38-102.7C291 66.1 262.5 48.1 234.3 41l-8.8-2.3-4.8 2.3c-2.8 1.3-5.8 3.7-7.3 5.9-2.1 3.2-2.4 4.6-2.4 13.4 0 15 2.3 18.5 15 22.6 3.6 1.2 7.4 2.5 8.5 3 7.1 3.1 12.5 5.9 16.2 8.3 2.3 1.5 4.4 2.8 4.8 2.8 1.4 0 9.5 6.9 17.2 14.8 9.1 9.2 17.4 20.9 22.4 31.7 4.5 9.7 4.4 9.4 7.9 22 1.8 6.4 3.2 24.1 2.6 32.4-1.1 14.2-2.5 20.4-6.9 32.6-4.2 11.7-6.3 15.5-16.8 31.1-4.8 7-21.1 21.7-29.5 26.5-11.9 6.8-20.9 10.5-35.5 14.5-8.3 2.3-39.4 2.6-47.9.5-23.6-5.8-45.1-17.8-59.7-33.5-22-23.5-34-58.3-30.4-88.3 1.7-13.9 3.5-21.6 7.2-31 12.6-31.9 38.1-56 70.7-66.9 14.3-4.8 16.2-7.5 16.2-22.5 0-9.4-.2-10.8-2.4-14-2.5-3.6-10-8-13.3-7.8-1 .1-3.4.6-5.3 1.1z"/><path d="M128.1 143.6c-8.2 2.2-15 6.2-21.6 12.9-10 10-14.5 21-14.5 35.5s4.5 25.5 14.5 35.6c10.6 10.6 22.5 15 38.9 14.2 11.2-.6 18.4-3.2 27.2-9.9l6.5-4.9h25.8l6.5 4.9c8.8 6.7 16 9.3 27.2 9.9 16.4.8 28.3-3.6 38.9-14.2 10-10.1 14.5-21.1 14.5-35.6s-4.5-25.5-14.5-35.5c-6.8-6.8-13.5-10.7-22-13-8.5-2.2-119.2-2.1-127.4.1zm22.6 19.8c.4.4 1 4.7 1.1 9.6l.4 8.8 8.8.4c4.9.1 9.2.7 9.7 1.1 1.1 1.1 1.1 16.3 0 17.4-.5.4-4.8 1-9.7 1.1l-8.8.4-.4 8.8c-.1 4.9-.7 9.2-1.1 9.7-1.1 1.1-16.3 1.1-17.4 0-.4-.5-1-4.8-1.1-9.7l-.4-8.8-8.8-.4c-4.9-.1-9.2-.7-9.7-1.1-1.1-1.1-1.1-16.3 0-17.4.5-.4 4.9-1 9.8-1.1l8.9-.4v-7.1c0-8.7.7-11.4 2.9-12.1 2.5-.7 14.9-.1 15.8.8zm112.2 4.3c4 3 6.3 8.1 5.8 13.2-.9 8.1-7.5 13.6-15.6 12.8-14.3-1.5-17.8-20.3-5-27 4.2-2.2 11-1.8 14.8 1zm-25 25c4 3 6.3 8.1 5.8 13.2-.9 8.1-7.5 13.6-15.6 12.8-14.3-1.5-17.8-20.3-5-27 4.2-2.2 11-1.8 14.8 1z"/></svg>